<svg width="164" height="70" viewBox="0 0 164 70" fill="none" xmlns="http://www.w3.org/2000/svg">
<path d="M47.5 2.5L35 15V42.5L47.5 31.25V2.5ZM52.5 12.5V46.25C49.75 45.375 46.75 45 43.75 45C39.5 45 33.375 46.625 30 48.75V15C26.375 12.25 21.125 11.25 16.25 11.25C11.375 11.25 6.125 12.25 2.5 15V51.625C2.5 52.25 3.125 52.875 3.75 52.875C4 52.875 4.125 52.75 4.375 52.75C7.75 51.125 12.625 50 16.25 50C21.125 50 26.375 51 30 53.75C33.375 51.625 39.5 50 43.75 50C47.875 50 52.125 50.75 55.625 52.625C55.875 52.75 56 52.75 56.25 52.75C56.875 52.75 57.5 52.125 57.5 51.5V15C56 13.875 54.375 13.125 52.5 12.5ZM25 46.025C21.875 45.225 18.75 45 16.25 45C13.6 45 10.45 45.475 7.5 46.25V17.825C9.775 16.825 12.85 16.25 16.25 16.25C19.65 16.25 22.725 16.825 25 17.825V46.025Z" fill="url(#paint0_linear)"/>
<rect x="71" y="45" width="90" height="2" fill="#484746"/>
<rect x="71" y="14" width="90" height="2" fill="#5E5BE6"/>
<path d="M78.4619 21.8906C79.2041 21.8906 79.7835 22.0518 80.2002 22.374C80.6201 22.693 80.8301 23.1732 80.8301 23.8145C80.8301 24.1302 80.7292 24.4134 80.5273 24.6641C80.3288 24.9115 80.0651 25.0954 79.7363 25.2158C80.1628 25.307 80.4997 25.5169 80.7471 25.8457C80.9945 26.1745 81.1182 26.557 81.1182 26.9932C81.1182 27.6442 80.9066 28.1423 80.4834 28.4873C80.0602 28.8291 79.4873 29 78.7646 29H75.3467V28.3848L76.1426 28.248V22.6475L75.3467 22.5107V21.8906H76.1426H78.4619ZM77.1045 25.665V28.248H78.7646C79.2041 28.248 79.5443 28.1406 79.7852 27.9258C80.0293 27.7077 80.1514 27.4001 80.1514 27.0029C80.1514 26.5863 80.0488 26.2591 79.8438 26.0215C79.6419 25.7839 79.3311 25.665 78.9111 25.665H77.1045ZM77.1045 24.9131H78.7109C79.056 24.9033 79.3343 24.8008 79.5459 24.6055C79.7607 24.4102 79.8682 24.14 79.8682 23.7949C79.8682 23.4108 79.7477 23.1243 79.5068 22.9355C79.266 22.7435 78.9176 22.6475 78.4619 22.6475H77.1045V24.9131ZM82.8189 29V28.3848L83.6148 28.248V22.6475L82.8189 22.5107V21.8906H88.2779V23.5996H87.4527L87.3746 22.6475H84.5768V24.9473H87.2965V25.7041H84.5768V28.248H87.4332L87.5113 27.2959H88.3316V29H82.8189ZM93.3625 21.8906C94.121 21.8906 94.7102 22.0859 95.1301 22.4766C95.5533 22.8672 95.7648 23.3815 95.7648 24.0195C95.7648 24.6641 95.5533 25.18 95.1301 25.5674C94.7102 25.9548 94.121 26.1484 93.3625 26.1484H91.8537V28.248L92.6496 28.3848V29H90.0959V28.3848L90.8918 28.248V22.6475L90.0959 22.5107V21.8906H90.8918H93.3625ZM91.8537 25.3965H93.3625C93.8443 25.3965 94.204 25.2679 94.4416 25.0107C94.6825 24.7503 94.8029 24.4232 94.8029 24.0293C94.8029 23.6354 94.6825 23.3066 94.4416 23.043C94.204 22.7793 93.8443 22.6475 93.3625 22.6475H91.8537V25.3965ZM102.866 24.0732H102.187L102.007 23.0674C101.85 22.9144 101.658 22.7891 101.43 22.6914C101.203 22.5938 100.931 22.5449 100.615 22.5449C99.8761 22.5449 99.3081 22.8135 98.9109 23.3506C98.5138 23.8844 98.3152 24.5632 98.3152 25.3867V25.499C98.3152 26.3226 98.5089 27.0046 98.8963 27.5449C99.2869 28.082 99.8273 28.3506 100.517 28.3506C100.84 28.3506 101.133 28.3001 101.396 28.1992C101.66 28.0983 101.863 27.9746 102.007 27.8281L102.187 26.8223H102.866V28.0869C102.661 28.3506 102.353 28.5866 101.943 28.7949C101.533 29 101.058 29.1025 100.517 29.1025C99.5929 29.1025 98.8344 28.7607 98.242 28.0771C97.6495 27.3936 97.3533 26.5342 97.3533 25.499V25.3965C97.3533 24.3548 97.6447 23.4938 98.2273 22.8135C98.81 22.1299 99.5734 21.7881 100.517 21.7881C101.058 21.7881 101.533 21.8939 101.943 22.1055C102.353 22.3138 102.661 22.5482 102.866 22.8086V24.0732ZM110.304 21.8906V23.4629H109.484L109.411 22.6475H107.833V28.248L108.629 28.3848V29H106.076V28.3848L106.871 28.248V22.6475H105.289L105.221 23.4629H104.396V21.8906H110.304ZM110.774 28.3848L111.302 28.3115L113.787 21.8906H114.612L117.054 28.3115L117.576 28.3848V29H115.535V28.3848L116.072 28.292L115.604 26.9834H112.757L112.273 28.292L112.811 28.3848V29H110.774V28.3848ZM113.055 26.1777H115.311L114.207 23.126H114.178L113.055 26.1777ZM121.64 22.6475L121.523 25.2402C121.461 26.5749 121.274 27.5352 120.962 28.1211C120.652 28.707 120.115 29 119.35 29H119.096V28.248H119.292C119.731 28.248 120.04 28.0251 120.219 27.5791C120.402 27.1299 120.517 26.3503 120.566 25.2402L120.683 22.6426L119.921 22.5107V21.8906H125.854V22.5107L125.058 22.6475V28.248L125.854 28.3848V29H123.3V28.3848L124.096 28.248V22.6475H121.64ZM129.2 21.8906V24.8008H130.953C131.715 24.8008 132.304 24.988 132.721 25.3623C133.141 25.7367 133.351 26.2428 133.351 26.8809C133.351 27.5221 133.141 28.0365 132.721 28.4238C132.301 28.8079 131.712 29 130.953 29H127.443V28.3848L128.238 28.248V22.6475L127.443 22.5107V21.8906H128.238H129.2ZM129.2 25.5576V28.248H130.953C131.435 28.248 131.795 28.1178 132.032 27.8574C132.27 27.597 132.389 27.2682 132.389 26.8711C132.389 26.487 132.27 26.1729 132.032 25.9287C131.795 25.6813 131.435 25.5576 130.953 25.5576H129.2ZM129.996 21.8906V22.5107L129.2 22.6475V21.8906H129.996ZM144.275 21.8906V22.5107L143.479 22.6475V28.2432H144.358L144.261 30.7139H143.406V29H135.008V28.3848L135.804 28.248V22.6475L135.008 22.5107V21.8906H135.804H136.765H137.561V22.5107L136.765 22.6475V28.248H139.168V22.6475L138.372 22.5107V21.8906H139.168H140.921V22.5107L140.125 22.6475V28.248H142.517V22.6475L141.721 22.5107V21.8906H142.517H144.275ZM148.442 21.8906V22.5107L147.646 22.6475V26.7441L147.675 26.7539L151.093 23.0967V22.6475L150.297 22.5107V21.8906H151.093H152.055H152.851V22.5107L152.055 22.6475V28.248L152.851 28.3848V29H150.297V28.3848L151.093 28.248V24.2832L151.064 24.2734L147.646 27.9355V28.248L148.442 28.3848V29H145.888V28.3848L146.684 28.248V22.6475L145.888 22.5107V21.8906H146.684H147.646H148.442ZM154.444 28.3848L155.24 28.248V22.6475L154.444 22.5107V21.8906H156.998V22.5107L156.202 22.6475V25.0938H156.979L158.585 22.7793C158.849 22.4147 159.078 22.1673 159.273 22.0371C159.469 21.9036 159.695 21.8369 159.952 21.8369C160.105 21.8369 160.234 21.8564 160.338 21.8955C160.445 21.9313 160.558 21.985 160.675 22.0566L160.533 22.7354C160.445 22.7191 160.367 22.7061 160.299 22.6963C160.234 22.6833 160.169 22.6768 160.104 22.6768C159.951 22.6768 159.82 22.7174 159.713 22.7988C159.609 22.8802 159.487 23.0186 159.347 23.2139L157.818 25.3428L160.182 28.2627L160.851 28.3848V29H158.517V28.3848L159.059 28.3164L157.12 25.9043H156.202V28.248L156.998 28.3848V29H154.444V28.3848ZM80.8594 34.0732H80.1807L80 33.0674C79.8438 32.9144 79.6517 32.7891 79.4238 32.6914C79.196 32.5938 78.9242 32.5449 78.6084 32.5449C77.8695 32.5449 77.3014 32.8135 76.9043 33.3506C76.5072 33.8844 76.3086 34.5632 76.3086 35.3867V35.499C76.3086 36.3226 76.5023 37.0046 76.8896 37.5449C77.2803 38.082 77.8206 38.3506 78.5107 38.3506C78.833 38.3506 79.126 38.3001 79.3896 38.1992C79.6533 38.0983 79.8568 37.9746 80 37.8281L80.1807 36.8223H80.8594V38.0869C80.6543 38.3506 80.3467 38.5866 79.9365 38.7949C79.5264 39 79.0511 39.1025 78.5107 39.1025C77.5863 39.1025 76.8278 38.7607 76.2354 38.0771C75.6429 37.3936 75.3467 36.5342 75.3467 35.499V35.3965C75.3467 34.3548 75.638 33.4938 76.2207 32.8135C76.8034 32.1299 77.5667 31.7881 78.5107 31.7881C79.0511 31.7881 79.5264 31.8939 79.9365 32.1055C80.3467 32.3138 80.6543 32.5482 80.8594 32.8086V34.0732ZM82.6236 38.3848L83.151 38.3115L85.6363 31.8906H86.4615L88.9029 38.3115L89.4254 38.3848V39H87.3844V38.3848L87.9215 38.292L87.4527 36.9834H84.6061L84.1227 38.292L84.6598 38.3848V39H82.6236V38.3848ZM84.9039 36.1777H87.1598L86.0563 33.126H86.027L84.9039 36.1777ZM93.509 31.8906V32.5107L92.7131 32.6475V36.7441L92.7424 36.7539L96.1604 33.0967V32.6475L95.3645 32.5107V31.8906H96.1604H97.1223H97.9182V32.5107L97.1223 32.6475V38.248L97.9182 38.3848V39H95.3645V38.3848L96.1604 38.248V34.2832L96.1311 34.2734L92.7131 37.9355V38.248L93.509 38.3848V39H90.9553V38.3848L91.7512 38.248V32.6475L90.9553 32.5107V31.8906H91.7512H92.7131H93.509ZM95.8332 29.8789L95.843 29.9082C95.856 30.2858 95.7307 30.5934 95.467 30.8311C95.2033 31.0687 94.8485 31.1875 94.4025 31.1875C93.9533 31.1875 93.5969 31.0687 93.3332 30.8311C93.0695 30.5934 92.9458 30.2858 92.9621 29.9082L92.9719 29.8789H93.7043C93.7043 30.0905 93.7596 30.2646 93.8703 30.4014C93.9842 30.5348 94.1617 30.6016 94.4025 30.6016C94.6369 30.6016 94.8111 30.5348 94.925 30.4014C95.0389 30.2646 95.0959 30.0905 95.0959 29.8789H95.8332ZM105.254 31.8906V33.4629H104.433L104.36 32.6475H102.783V38.248L103.579 38.3848V39H101.025V38.3848L101.821 38.248V32.6475H100.239L100.171 33.4629H99.3455V31.8906H105.254ZM112.877 35.499C112.877 36.5342 112.579 37.3936 111.984 38.0771C111.391 38.7607 110.623 39.1025 109.679 39.1025C108.761 39.1025 108.016 38.7607 107.443 38.0771C106.87 37.3936 106.583 36.5342 106.583 35.499V35.3965C106.583 34.3646 106.87 33.5052 107.443 32.8184C108.016 32.1315 108.761 31.7881 109.679 31.7881C110.623 31.7881 111.391 32.1315 111.984 32.8184C112.579 33.5052 112.877 34.3646 112.877 35.3965V35.499ZM111.915 35.3867C111.915 34.5599 111.717 33.8861 111.32 33.3652C110.926 32.8411 110.379 32.5791 109.679 32.5791C109.009 32.5791 108.484 32.8411 108.107 33.3652C107.732 33.8893 107.545 34.5632 107.545 35.3867V35.499C107.545 36.3324 107.732 37.0111 108.107 37.5352C108.484 38.056 109.009 38.3164 109.679 38.3164C110.389 38.3164 110.939 38.056 111.329 37.5352C111.72 37.0143 111.915 36.3356 111.915 35.499V35.3867ZM117.62 31.8906C118.362 31.8906 118.942 32.0518 119.358 32.374C119.778 32.693 119.988 33.1732 119.988 33.8145C119.988 34.1302 119.887 34.4134 119.686 34.6641C119.487 34.9115 119.223 35.0954 118.895 35.2158C119.321 35.307 119.658 35.5169 119.905 35.8457C120.153 36.1745 120.276 36.557 120.276 36.9932C120.276 37.6442 120.065 38.1423 119.642 38.4873C119.218 38.8291 118.646 39 117.923 39H114.505V38.3848L115.301 38.248V32.6475L114.505 32.5107V31.8906H115.301H117.62ZM116.263 35.665V38.248H117.923C118.362 38.248 118.702 38.1406 118.943 37.9258C119.188 37.7077 119.31 37.4001 119.31 37.0029C119.31 36.5863 119.207 36.2591 119.002 36.0215C118.8 35.7839 118.489 35.665 118.069 35.665H116.263ZM116.263 34.9131H117.869C118.214 34.9033 118.493 34.8008 118.704 34.6055C118.919 34.4102 119.026 34.14 119.026 33.7949C119.026 33.4108 118.906 33.1243 118.665 32.9355C118.424 32.7435 118.076 32.6475 117.62 32.6475H116.263V34.9131Z" fill="black"/>
<path d="M1.41602 68.2617L2.37109 68.0977V61.377L1.41602 61.2129V60.4688H4.48047V61.2129L3.52539 61.377V64.3125H4.45703L6.38477 61.5352C6.70117 61.0977 6.97656 60.8008 7.21094 60.6445C7.44531 60.4844 7.7168 60.4043 8.02539 60.4043C8.20898 60.4043 8.36328 60.4277 8.48828 60.4746C8.61719 60.5176 8.75195 60.582 8.89258 60.668L8.72266 61.4824C8.61719 61.4629 8.52344 61.4473 8.44141 61.4355C8.36328 61.4199 8.28516 61.4121 8.20703 61.4121C8.02344 61.4121 7.86719 61.4609 7.73828 61.5586C7.61328 61.6562 7.4668 61.8223 7.29883 62.0566L5.46484 64.6113L8.30078 68.1152L9.10352 68.2617V69H6.30273V68.2617L6.95312 68.1797L4.62695 65.2852H3.52539V68.0977L4.48047 68.2617V69H1.41602V68.2617ZM18.5359 64.7988C18.5359 66.041 18.1785 67.0723 17.4637 67.8926C16.7527 68.7129 15.8309 69.123 14.698 69.123C13.5965 69.123 12.702 68.7129 12.0145 67.8926C11.327 67.0723 10.9832 66.041 10.9832 64.7988V64.6758C10.9832 63.4375 11.327 62.4062 12.0145 61.582C12.702 60.7578 13.5965 60.3457 14.698 60.3457C15.8309 60.3457 16.7527 60.7578 17.4637 61.582C18.1785 62.4062 18.5359 63.4375 18.5359 64.6758V64.7988ZM17.3816 64.6641C17.3816 63.6719 17.1434 62.8633 16.6668 62.2383C16.1941 61.6094 15.5379 61.2949 14.698 61.2949C13.8934 61.2949 13.2645 61.6094 12.8113 62.2383C12.3621 62.8672 12.1375 63.6758 12.1375 64.6641V64.7988C12.1375 65.7988 12.3621 66.6133 12.8113 67.2422C13.2645 67.8672 13.8934 68.1797 14.698 68.1797C15.5496 68.1797 16.2098 67.8672 16.6785 67.2422C17.1473 66.6172 17.3816 65.8027 17.3816 64.7988V64.6641ZM24.5289 60.4688C25.4391 60.4688 26.1461 60.7031 26.65 61.1719C27.1578 61.6406 27.4117 62.2578 27.4117 63.0234C27.4117 63.7969 27.1578 64.416 26.65 64.8809C26.1461 65.3457 25.4391 65.5781 24.5289 65.5781H22.7184V68.0977L23.6734 68.2617V69H20.609V68.2617L21.5641 68.0977V61.377L20.609 61.2129V60.4688H21.5641H24.5289ZM22.7184 64.6758H24.5289C25.107 64.6758 25.5387 64.5215 25.8238 64.2129C26.1129 63.9004 26.2574 63.5078 26.2574 63.0352C26.2574 62.5625 26.1129 62.168 25.8238 61.8516C25.5387 61.5352 25.107 61.377 24.5289 61.377H22.7184V64.6758ZM37.0375 64.7988C37.0375 66.041 36.6801 67.0723 35.9652 67.8926C35.2543 68.7129 34.3324 69.123 33.1996 69.123C32.098 69.123 31.2035 68.7129 30.516 67.8926C29.8285 67.0723 29.4848 66.041 29.4848 64.7988V64.6758C29.4848 63.4375 29.8285 62.4062 30.516 61.582C31.2035 60.7578 32.098 60.3457 33.1996 60.3457C34.3324 60.3457 35.2543 60.7578 35.9652 61.582C36.6801 62.4062 37.0375 63.4375 37.0375 64.6758V64.7988ZM35.8832 64.6641C35.8832 63.6719 35.6449 62.8633 35.1684 62.2383C34.6957 61.6094 34.0395 61.2949 33.1996 61.2949C32.3949 61.2949 31.766 61.6094 31.3129 62.2383C30.8637 62.8672 30.6391 63.6758 30.6391 64.6641V64.7988C30.6391 65.7988 30.8637 66.6133 31.3129 67.2422C31.766 67.8672 32.3949 68.1797 33.1996 68.1797C34.0512 68.1797 34.7113 67.8672 35.1801 67.2422C35.6488 66.6172 35.8832 65.8027 35.8832 64.7988V64.6641ZM45.2336 62.3555H44.2434L44.1555 61.377H41.2141V63.9609H43.3176C44.2316 63.9609 44.9387 64.1855 45.4387 64.6348C45.9426 65.084 46.1945 65.6914 46.1945 66.457C46.1945 67.2266 45.9426 67.8438 45.4387 68.3086C44.9348 68.7695 44.2277 69 43.3176 69H39.0461V68.2617L40.0012 68.0977V61.377L39.0461 61.2129V60.4688H45.2336V62.3555ZM41.2141 64.8691V68.0977H43.3176C43.8957 68.0977 44.3273 67.9414 44.6125 67.6289C44.8977 67.3164 45.0402 66.9219 45.0402 66.4453C45.0402 65.9844 44.8977 65.6074 44.6125 65.3145C44.3273 65.0176 43.8957 64.8691 43.3176 64.8691H41.2141ZM48.2793 69V68.2617L49.2344 68.0977V61.377L48.2793 61.2129V60.4688H54.8301V62.5195H53.8398L53.7461 61.377H50.3887V64.1367H53.6523V65.0449H50.3887V68.0977H53.8164L53.9102 66.9551H54.8945V69H48.2793ZM60.2313 60.4688V61.2129L59.2762 61.377V66.293L59.3113 66.3047L63.4129 61.916V61.377L62.4578 61.2129V60.4688H63.4129H64.5672H65.5223V61.2129L64.5672 61.377V68.0977L65.5223 68.2617V69H62.4578V68.2617L63.4129 68.0977V63.3398L63.3777 63.3281L59.2762 67.7227V68.0977L60.2313 68.2617V69H57.1668V68.2617L58.1219 68.0977V61.377L57.1668 61.2129V60.4688H58.1219H59.2762H60.2313ZM63.0203 58.0547L63.032 58.0898C63.0477 58.543 62.8973 58.9121 62.5809 59.1973C62.2645 59.4824 61.8387 59.625 61.3035 59.625C60.7645 59.625 60.3367 59.4824 60.0203 59.1973C59.7039 58.9121 59.5555 58.543 59.575 58.0898L59.5867 58.0547H60.4656C60.4656 58.3086 60.532 58.5176 60.6648 58.6816C60.8016 58.8418 61.0145 58.9219 61.3035 58.9219C61.5848 58.9219 61.7938 58.8418 61.9305 58.6816C62.0672 58.5176 62.1355 58.3086 62.1355 58.0547H63.0203ZM67.5543 61.2129V60.4688H70.6188V61.2129L69.6637 61.377V64.3242H73.8004V61.377L72.8453 61.2129V60.4688H73.8004H74.9547H75.9098V61.2129L74.9547 61.377V68.0977L75.9098 68.2617V69H72.8453V68.2617L73.8004 68.0977V65.2324H69.6637V68.0977L70.6188 68.2617V69H67.5543V68.2617L68.5094 68.0977V61.377L67.5543 61.2129ZM81.0766 60.4688V61.2129L80.1215 61.377V66.293L80.1566 66.3047L84.2582 61.916V61.377L83.3031 61.2129V60.4688H84.2582H85.4125H86.3676V61.2129L85.4125 61.377V68.0977L86.3676 68.2617V69H83.3031V68.2617L84.2582 68.0977V63.3398L84.223 63.3281L80.1215 67.7227V68.0977L81.0766 68.2617V69H78.0121V68.2617L78.9672 68.0977V61.377L78.0121 61.2129V60.4688H78.9672H80.1215H81.0766ZM88.3996 68.2617L89.3547 68.0977V61.377L88.3996 61.2129V60.4688H91.4641V61.2129L90.509 61.377V64.3125H91.4406L93.3684 61.5352C93.6848 61.0977 93.9602 60.8008 94.1945 60.6445C94.4289 60.4844 94.7004 60.4043 95.009 60.4043C95.1926 60.4043 95.3469 60.4277 95.4719 60.4746C95.6008 60.5176 95.7355 60.582 95.8762 60.668L95.7063 61.4824C95.6008 61.4629 95.507 61.4473 95.425 61.4355C95.3469 61.4199 95.2688 61.4121 95.1906 61.4121C95.007 61.4121 94.8508 61.4609 94.7219 61.5586C94.5969 61.6562 94.4504 61.8223 94.2824 62.0566L92.4484 64.6113L95.2844 68.1152L96.0871 68.2617V69H93.2863V68.2617L93.9367 68.1797L91.6105 65.2852H90.509V68.0977L91.4641 68.2617V69H88.3996V68.2617ZM105.52 64.7988C105.52 66.041 105.162 67.0723 104.447 67.8926C103.736 68.7129 102.814 69.123 101.682 69.123C100.58 69.123 99.6855 68.7129 98.998 67.8926C98.3105 67.0723 97.9668 66.041 97.9668 64.7988V64.6758C97.9668 63.4375 98.3105 62.4062 98.998 61.582C99.6855 60.7578 100.58 60.3457 101.682 60.3457C102.814 60.3457 103.736 60.7578 104.447 61.582C105.162 62.4062 105.52 63.4375 105.52 64.6758V64.7988ZM104.365 64.6641C104.365 63.6719 104.127 62.8633 103.65 62.2383C103.178 61.6094 102.521 61.2949 101.682 61.2949C100.877 61.2949 100.248 61.6094 99.7949 62.2383C99.3457 62.8672 99.1211 63.6758 99.1211 64.6641V64.7988C99.1211 65.7988 99.3457 66.6133 99.7949 67.2422C100.248 67.8672 100.877 68.1797 101.682 68.1797C102.533 68.1797 103.193 67.8672 103.662 67.2422C104.131 66.6172 104.365 65.8027 104.365 64.7988V64.6641ZM111.331 60.4688C112.221 60.4688 112.917 60.6621 113.417 61.0488C113.921 61.4316 114.173 62.0078 114.173 62.7773C114.173 63.1562 114.052 63.4961 113.809 63.7969C113.571 64.0938 113.255 64.3145 112.86 64.459C113.372 64.5684 113.776 64.8203 114.073 65.2148C114.37 65.6094 114.518 66.0684 114.518 66.5918C114.518 67.373 114.264 67.9707 113.757 68.3848C113.249 68.7949 112.561 69 111.694 69H107.593V68.2617L108.548 68.0977V61.377L107.593 61.2129V60.4688H108.548H111.331ZM109.702 64.998V68.0977H111.694C112.221 68.0977 112.63 67.9688 112.919 67.7109C113.212 67.4492 113.358 67.0801 113.358 66.6035C113.358 66.1035 113.235 65.7109 112.989 65.4258C112.747 65.1406 112.374 64.998 111.87 64.998H109.702ZM109.702 64.0957H111.63C112.044 64.084 112.378 63.9609 112.632 63.7266C112.889 63.4922 113.018 63.168 113.018 62.7539C113.018 62.293 112.874 61.9492 112.585 61.7227C112.296 61.4922 111.878 61.377 111.331 61.377H109.702V64.0957ZM120.727 61.2129V60.4688H123.791V61.2129L122.836 61.377V64.3945H124.09C124.149 63.2305 124.518 62.2695 125.198 61.5117C125.881 60.75 126.748 60.3691 127.799 60.3691C128.932 60.3691 129.854 60.7812 130.565 61.6055C131.28 62.4297 131.637 63.4609 131.637 64.6992V64.8223C131.637 66.0645 131.28 67.0957 130.565 67.916C129.854 68.7363 128.932 69.1465 127.799 69.1465C126.772 69.1465 125.92 68.7871 125.245 68.0684C124.573 67.3457 124.192 66.4219 124.102 65.2969H122.836V68.0977L123.791 68.2617V69H120.727V68.2617L121.682 68.0977V61.377L120.727 61.2129ZM130.483 64.6875C130.483 63.6953 130.245 62.8867 129.768 62.2617C129.295 61.6328 128.639 61.3184 127.799 61.3184C126.995 61.3184 126.366 61.6328 125.912 62.2617C125.463 62.8906 125.239 63.6992 125.239 64.6875V64.8223C125.239 65.8223 125.463 66.6367 125.912 67.2656C126.366 67.8906 126.995 68.2031 127.799 68.2031C128.651 68.2031 129.311 67.8906 129.78 67.2656C130.248 66.6406 130.483 65.8262 130.483 64.8223V64.6875ZM137.671 60.4688C138.581 60.4688 139.288 60.7031 139.792 61.1719C140.3 61.6406 140.554 62.2578 140.554 63.0234C140.554 63.7969 140.3 64.416 139.792 64.8809C139.288 65.3457 138.581 65.5781 137.671 65.5781H135.861V68.0977L136.816 68.2617V69H133.751V68.2617L134.706 68.0977V61.377L133.751 61.2129V60.4688H134.706H137.671ZM135.861 64.6758H137.671C138.249 64.6758 138.681 64.5215 138.966 64.2129C139.255 63.9004 139.4 63.5078 139.4 63.0352C139.4 62.5625 139.255 62.168 138.966 61.8516C138.681 61.5352 138.249 61.377 137.671 61.377H135.861V64.6758ZM145.68 60.4688V61.2129L144.725 61.377V66.293L144.76 66.3047L148.861 61.916V61.377L147.906 61.2129V60.4688H148.861H150.016H150.971V61.2129L150.016 61.377V68.0977L150.971 68.2617V69H147.906V68.2617L148.861 68.0977V63.3398L148.826 63.3281L144.725 67.7227V68.0977L145.68 68.2617V69H142.615V68.2617L143.57 68.0977V61.377L142.615 61.2129V60.4688H143.57H144.725H145.68ZM156.102 60.4688V61.2129L155.147 61.377V66.293L155.182 66.3047L159.284 61.916V61.377L158.329 61.2129V60.4688H159.284H160.438H161.393V61.2129L160.438 61.377V68.0977L161.393 68.2617V69H158.329V68.2617L159.284 68.0977V63.3398L159.249 63.3281L155.147 67.7227V68.0977L156.102 68.2617V69H153.038V68.2617L153.993 68.0977V61.377L153.038 61.2129V60.4688H153.993H155.147H156.102ZM158.891 58.0547L158.903 58.0898C158.919 58.543 158.768 58.9121 158.452 59.1973C158.136 59.4824 157.71 59.625 157.175 59.625C156.636 59.625 156.208 59.4824 155.891 59.1973C155.575 58.9121 155.427 58.543 155.446 58.0898L155.458 58.0547H156.337C156.337 58.3086 156.403 58.5176 156.536 58.6816C156.673 58.8418 156.886 58.9219 157.175 58.9219C157.456 58.9219 157.665 58.8418 157.802 58.6816C157.938 58.5176 158.007 58.3086 158.007 58.0547H158.891Z" fill="#484746"/>
<defs>
<linearGradient id="paint0_linear" x1="30" y1="2.5" x2="30" y2="53.75" gradientUnits="userSpaceOnUse">
<stop stop-color="#312F2F"/>
<stop offset="1" stop-color="#120EF2" stop-opacity="0.65"/>
</linearGradient>
</defs>
</svg>
